<?xml version="1.0" encoding="utf-8"?>
<!-- Generator: Adobe Illustrator 16.0.0, SVG Export Plug-In . SVG Version: 6.00 Build 0)  -->
<!DOCTYPE svg PUBLIC "-//W3C//DTD SVG 1.1//EN" "http://www.w3.org/Graphics/SVG/1.1/DTD/svg11.dtd">
<svg version="1.1" id="Layer_1" xmlns="http://www.w3.org/2000/svg" xmlns:xlink="http://www.w3.org/1999/xlink" x="0px" y="0px"
	 width="317.335px" height="54.308px" viewBox="0 0 317.335 54.308" enable-background="new 0 0 317.335 54.308"
	 xml:space="preserve">
<g>
	<path fill-rule="evenodd" clip-rule="evenodd" fill="#4BBD0C" d="M0.754,15.429c-8.085,32.995,51.677,43.735,45.281,30.209
		c-2.135-4.512-6.118-8.892-11.088-13.237c-1.695-1.625-3.776-3.162-5.379-4.609l1.883-2.487c0.405,0.129,0.838,0.199,1.287,0.199
		c2.352,0,4.258-1.907,4.258-4.258s-1.907-4.258-4.258-4.258c-2.351,0-4.257,1.907-4.257,4.258c0,0.94,0.306,1.81,0.823,2.515
		l-2.065,1.966c-8.743-7.616-15.992-12.301-21.319-13.214c-0.55-0.094-1.082-0.148-1.591-0.161
		C2.19,12.299,1.209,13.565,0.754,15.429L0.754,15.429z M28.256,29.521l-5.004,6.609c5.597,4.318,12.03,8.247,19.398,11.724
		c2.74,1.292,1.891-0.413,0.621-2.115C38.607,39.483,33.618,34.137,28.256,29.521L28.256,29.521z M19.514,33.084l6.069-5.78
		c-5.844-4.669-11.14-8.739-17.9-12.032c-2.997-1.46-4.146-0.691-2.392,1.902C9.149,22.87,13.85,28.199,19.514,33.084L19.514,33.084
		z"/>
	<path fill-rule="evenodd" clip-rule="evenodd" fill="#4BBD0C" d="M1.301,53.112h27.701c0-0.395,0-0.791,0-1.186
		c-5.883-1.033-12.842-2.997-16.712-6.617C5.31,46.898,2.71,48.826,1.301,53.112L1.301,53.112z"/>
	<path fill-rule="evenodd" clip-rule="evenodd" fill="#4BBD0C" d="M35.476,5.66c-1.911,0.287-1.772,2.224-0.209,2.481
		c7.456,0.699,11.601,4.841,11.996,12.211c0.041,0.765,1.736,2.752,2.706-0.011C49.081,11.514,44.501,6.549,35.476,5.66L35.476,5.66
		z"/>
	<path fill-rule="evenodd" clip-rule="evenodd" fill="#4BBD0C" d="M35.236,0.026c-1.911,0.286-1.775,2.49-0.212,2.747
		c8.994-0.69,19.429,8.801,18.133,17.697c-0.109,0.759,1.735,2.753,2.706-0.009C56.912,9.872,45.917-0.59,35.236,0.026L35.236,0.026
		z"/>
	<path fill-rule="evenodd" clip-rule="evenodd" fill="#4BBD0C" d="M35.276,11.459c-1.91,0.287-1.771,2.225-0.208,2.48
		c1.838,0.189,6.719,1.192,6.523,6.689c-0.028,0.765,1.516,2.528,2.486-0.235C44.077,14.499,40.546,12.176,35.276,11.459
		L35.276,11.459z"/>
	<path fill="#FFFFFF" d="M109.168,10.572l-5.518,7.114h-8.217v20.315h-8.52V17.687h-11.3l5.478-7.114H109.168L109.168,10.572z
		 M159.27,10.572l-7.115,24.347c-0.279,0.964-0.849,1.776-1.712,2.436c-0.938,0.71-1.99,1.064-3.157,1.064
		c-1.801,0-3.361-1.064-4.68-3.195l-8.369-13.657l-8.407,13.657c-1.293,2.131-2.841,3.195-4.641,3.195c-1.167,0-2.2-0.342-3.1-1.026
		c-0.9-0.684-1.491-1.509-1.769-2.474l-7.114-24.347h9.319l3.614,14.494l7.685-12.363c1.014-1.624,2.411-2.436,4.186-2.436
		c0.938,0,1.832,0.229,2.682,0.686c0.849,0.456,1.501,1.039,1.958,1.75l7.685,12.363l3.576-14.494H159.27L159.27,10.572z
		 M170.15,38.001h-8.484V10.572h8.484V38.001L170.15,38.001z M206.975,34.463c0,2.485-1.129,3.729-3.386,3.729
		c-1.623,0-3.17-0.609-4.641-1.827l-16.054-13.429v15.065h-8.522V14.111c0-1.015,0.324-1.852,0.972-2.511
		c0.646-0.659,1.565-0.99,2.758-0.99c1.546,0,2.979,0.546,4.298,1.636l16.054,13.429V10.572h8.522V34.463L206.975,34.463z
		 M245.549,10.572l-5.478,7.114h-19.4c-1.041,0-1.56,0.368-1.56,1.103c0,0.735,0.52,1.104,1.56,1.104h13.96
		c3.323,0,6.1,0.812,8.331,2.436c2.308,1.725,3.463,3.956,3.463,6.694c0,2.715-1.167,4.908-3.501,6.582
		c-2.18,1.598-4.945,2.397-8.293,2.397h-25.107l5.478-7.076h19.629c0.889,0,1.688-0.152,2.397-0.456
		c0.913-0.38,1.369-0.9,1.369-1.561c0-0.684-0.456-1.204-1.369-1.558c-0.685-0.254-1.484-0.382-2.397-0.382h-13.96
		c-3.094,0-5.682-0.709-7.761-2.13c-2.232-1.521-3.348-3.538-3.348-6.049c0-2.536,1.116-4.564,3.348-6.086
		c2.079-1.42,4.667-2.131,7.761-2.131H245.549L245.549,10.572z M260.501,38.001l5.135-7.114h11.451l-7.114-9.853l-12.364,16.967
		H247.07l17.577-24.386c0.558-0.811,1.33-1.521,2.32-2.13c1.09-0.659,2.142-0.988,3.158-0.988c1.04,0,2.092,0.329,3.157,0.988
		c0.938,0.584,1.699,1.293,2.283,2.13l17.157,24.386H260.501L260.501,38.001z M317.335,10.572l-5.517,7.114h-8.216v20.315h-8.522
		V17.687h-11.299l5.479-7.114H317.335L317.335,10.572z"/>
	<path fill="#FFFFFF" d="M87.417,47.667h1.207l1.496,4.518l1.52-4.518h1.189l1.091,6.477h-1.19l-0.696-4.089l-1.377,4.089h-1.086
		l-1.36-4.089l-0.709,4.089h-1.203L87.417,47.667L87.417,47.667z M98.942,47.504c0.916,0,1.705,0.332,2.362,0.995
		c0.659,0.665,0.99,1.474,0.99,2.427c0,0.945-0.325,1.746-0.977,2.398c-0.651,0.657-1.439,0.983-2.367,0.983
		c-0.97,0-1.777-0.337-2.42-1.009c-0.644-0.673-0.966-1.47-0.966-2.394c0-0.62,0.15-1.189,0.451-1.709
		c0.298-0.52,0.71-0.932,1.235-1.235C97.772,47.657,98.338,47.504,98.942,47.504L98.942,47.504z M98.93,48.711
		c-0.6,0-1.104,0.208-1.511,0.626c-0.409,0.416-0.613,0.946-0.613,1.589c0,0.717,0.256,1.283,0.77,1.7
		c0.4,0.325,0.858,0.489,1.374,0.489c0.584,0,1.083-0.211,1.493-0.634c0.411-0.424,0.617-0.943,0.617-1.563
		c0-0.617-0.208-1.14-0.622-1.566C100.025,48.926,99.522,48.711,98.93,48.711L98.93,48.711z M104.436,47.667h1.179l2.779,4.263
		v-4.263h1.231v6.477h-1.184l-2.774-4.249v4.249h-1.231V47.667L104.436,47.667z M111.438,47.667h3.58v1.216h-1.18v5.261h-1.25
		v-5.261h-1.15V47.667L111.438,47.667z M118.813,47.667h1.25l2.491,6.477h-1.28l-0.507-1.334h-2.642l-0.528,1.334h-1.28
		L118.813,47.667L118.813,47.667z M119.448,49.385l-0.864,2.223h1.721L119.448,49.385L119.448,49.385z M124.144,47.667h3.917
		l-2.311,5.292h2.161v1.185h-3.957l2.303-5.257h-2.113V47.667L124.144,47.667z M125.887,45.907c0.175,0,0.326,0.063,0.449,0.186
		c0.124,0.123,0.186,0.271,0.186,0.445c0,0.175-0.062,0.325-0.186,0.447c-0.123,0.124-0.274,0.186-0.449,0.186
		c-0.173,0-0.322-0.062-0.445-0.186c-0.124-0.122-0.186-0.272-0.186-0.447c0-0.174,0.062-0.322,0.186-0.445
		C125.564,45.969,125.713,45.907,125.887,45.907L125.887,45.907z M132.517,50.887c0-0.358,0.125-0.665,0.38-0.92
		c0.254-0.257,0.561-0.383,0.918-0.383c0.361,0,0.668,0.126,0.924,0.38c0.255,0.254,0.383,0.562,0.383,0.922
		c0,0.36-0.127,0.668-0.383,0.923c-0.255,0.253-0.562,0.379-0.919,0.379c-0.361,0-0.668-0.126-0.923-0.379
		C132.641,51.555,132.517,51.247,132.517,50.887L132.517,50.887z M140.03,47.667h1.224v6.477h-1.224V47.667L140.03,47.667z
		 M143.622,47.667h1.18l2.779,4.263v-4.263h1.231v6.477h-1.184l-2.774-4.249v4.249h-1.232V47.667L143.622,47.667z M154.658,48.548
		l-0.911,0.805c-0.32-0.444-0.646-0.668-0.978-0.668c-0.161,0-0.293,0.043-0.397,0.13c-0.103,0.085-0.153,0.183-0.153,0.292
		c0,0.109,0.036,0.211,0.109,0.309c0.102,0.128,0.401,0.406,0.904,0.832c0.467,0.394,0.754,0.642,0.853,0.743
		c0.249,0.252,0.428,0.495,0.53,0.724c0.104,0.231,0.157,0.483,0.157,0.757c0,0.53-0.184,0.969-0.55,1.316
		c-0.366,0.346-0.847,0.52-1.436,0.52c-0.46,0-0.862-0.113-1.204-0.338c-0.342-0.228-0.635-0.583-0.877-1.066l1.034-0.625
		c0.312,0.572,0.669,0.856,1.072,0.856c0.212,0,0.391-0.06,0.534-0.184c0.145-0.122,0.216-0.266,0.216-0.426
		c0-0.147-0.056-0.292-0.164-0.441c-0.108-0.146-0.346-0.371-0.717-0.672c-0.704-0.576-1.16-1.021-1.365-1.334
		c-0.206-0.312-0.31-0.624-0.31-0.935c0-0.448,0.173-0.833,0.515-1.155c0.341-0.322,0.763-0.483,1.265-0.483
		c0.324,0,0.63,0.076,0.924,0.226C154.001,47.88,154.317,48.154,154.658,48.548L154.658,48.548z M156.288,47.667h3.581v1.216h-1.18
		v5.261h-1.249v-5.261h-1.151V47.667L156.288,47.667z M163.664,47.667h1.251l2.491,6.477h-1.28l-0.506-1.334h-2.642l-0.53,1.334
		h-1.28L163.664,47.667L163.664,47.667z M164.299,49.385l-0.864,2.223h1.722L164.299,49.385L164.299,49.385z M169.338,47.667h1.233
		v5.302h1.796v1.175h-3.029V47.667L169.338,47.667z M176.255,47.667h1.25l2.492,6.477h-1.282l-0.506-1.334h-2.642l-0.529,1.334
		h-1.281L176.255,47.667L176.255,47.667z M176.889,49.385l-0.864,2.223h1.722L176.889,49.385L176.889,49.385z M187.88,48.809
		l-0.862,0.824c-0.588-0.62-1.248-0.931-1.982-0.931c-0.62,0-1.142,0.212-1.566,0.635c-0.422,0.422-0.635,0.944-0.635,1.562
		c0,0.432,0.093,0.814,0.282,1.149c0.188,0.335,0.454,0.598,0.796,0.79c0.345,0.189,0.727,0.285,1.146,0.285
		c0.357,0,0.685-0.067,0.982-0.2c0.294-0.136,0.621-0.376,0.977-0.729l0.837,0.872c-0.479,0.467-0.932,0.791-1.356,0.971
		c-0.425,0.181-0.911,0.271-1.458,0.271c-1.005,0-1.83-0.32-2.473-0.958c-0.639-0.639-0.962-1.457-0.962-2.455
		c0-0.647,0.146-1.219,0.438-1.722c0.292-0.502,0.711-0.905,1.256-1.209c0.545-0.306,1.13-0.46,1.76-0.46
		c0.534,0,1.049,0.113,1.543,0.341C187.095,48.071,187.522,48.392,187.88,48.809L187.88,48.809z M191.547,47.667h1.238v4.298
		c0,0.683-0.054,1.163-0.163,1.439c-0.109,0.275-0.288,0.495-0.537,0.658c-0.25,0.163-0.549,0.245-0.9,0.245
		c-0.712,0-1.321-0.313-1.822-0.938l0.889-0.831c0.198,0.222,0.364,0.373,0.503,0.448c0.138,0.077,0.271,0.115,0.399,0.115
		c0.133,0,0.232-0.056,0.297-0.169c0.064-0.11,0.096-0.357,0.096-0.735V47.667L191.547,47.667z M195.245,47.667h3.536v1.207h-2.311
		v1.17h2.311v1.187h-2.311v1.702h2.311v1.211h-3.536V47.667L195.245,47.667z M203.45,50.887c0-0.358,0.127-0.665,0.38-0.92
		c0.254-0.257,0.561-0.383,0.917-0.383c0.362,0,0.669,0.126,0.925,0.38c0.255,0.254,0.383,0.562,0.383,0.922
		c0,0.36-0.128,0.668-0.383,0.923c-0.256,0.253-0.562,0.379-0.92,0.379c-0.361,0-0.668-0.126-0.923-0.379
		C203.577,51.555,203.45,51.247,203.45,50.887L203.45,50.887z M211.137,47.667h1.308c0.716,0,1.226,0.065,1.529,0.193
		c0.304,0.127,0.549,0.339,0.732,0.635c0.186,0.296,0.278,0.647,0.278,1.053c0,0.426-0.101,0.78-0.306,1.068
		c-0.205,0.286-0.512,0.5-0.923,0.649l1.534,2.879h-1.348l-1.458-2.742h-0.114v2.742h-1.233V47.667L211.137,47.667z M212.37,50.2
		h0.387c0.396,0,0.665-0.051,0.814-0.155c0.147-0.102,0.221-0.271,0.221-0.509c0-0.141-0.037-0.265-0.11-0.368
		c-0.074-0.104-0.171-0.179-0.293-0.225c-0.124-0.046-0.349-0.068-0.679-0.068h-0.339V50.2L212.37,50.2z M217.263,47.667h3.537
		v1.207h-2.312v1.17h2.312v1.187h-2.312v1.702h2.312v1.211h-3.537V47.667L217.263,47.667z M228.903,48.726l-0.867,0.858
		c-0.551-0.582-1.188-0.873-1.921-0.873c-0.637,0-1.17,0.212-1.601,0.635c-0.43,0.422-0.644,0.936-0.644,1.541
		c0,0.625,0.223,1.155,0.668,1.59c0.446,0.435,0.997,0.65,1.651,0.65c0.426,0,0.786-0.089,1.077-0.267
		c0.293-0.18,0.528-0.46,0.708-0.842h-1.875V50.86h3.257l0.009,0.274c0,0.566-0.146,1.103-0.441,1.611
		c-0.293,0.508-0.672,0.895-1.14,1.163c-0.467,0.268-1.014,0.4-1.643,0.4c-0.671,0-1.271-0.147-1.797-0.438
		c-0.529-0.293-0.945-0.708-1.251-1.25c-0.307-0.539-0.46-1.123-0.46-1.747c0-0.856,0.284-1.603,0.85-2.237
		c0.672-0.754,1.547-1.132,2.624-1.132c0.563,0,1.091,0.104,1.581,0.313C228.102,47.993,228.507,48.296,228.903,48.726
		L228.903,48.726z M231.428,47.667h1.237v4.191c0,0.362,0.032,0.618,0.095,0.767c0.063,0.15,0.167,0.269,0.313,0.358
		c0.146,0.091,0.321,0.135,0.526,0.135c0.217,0,0.404-0.05,0.562-0.149c0.155-0.102,0.266-0.228,0.326-0.381
		c0.06-0.154,0.09-0.448,0.09-0.883v-4.038h1.237v3.862c0,0.651-0.037,1.104-0.109,1.355c-0.074,0.251-0.215,0.496-0.421,0.73
		c-0.206,0.237-0.446,0.408-0.716,0.523c-0.27,0.114-0.584,0.169-0.942,0.169c-0.47,0-0.878-0.107-1.227-0.324
		c-0.348-0.216-0.596-0.486-0.747-0.811c-0.147-0.324-0.224-0.874-0.224-1.644V47.667L231.428,47.667z M238.221,47.667h1.234v5.302
		h1.796v1.175h-3.03V47.667L238.221,47.667z M245.138,47.667h1.251l2.491,6.477h-1.282l-0.506-1.334h-2.64l-0.53,1.334h-1.279
		L245.138,47.667L245.138,47.667z M245.771,49.385l-0.863,2.223h1.722L245.771,49.385L245.771,49.385z M256.764,48.809l-0.862,0.824
		c-0.588-0.62-1.248-0.931-1.982-0.931c-0.62,0-1.142,0.212-1.565,0.635c-0.425,0.422-0.636,0.944-0.636,1.562
		c0,0.432,0.093,0.814,0.281,1.149c0.187,0.335,0.454,0.598,0.796,0.79c0.345,0.189,0.727,0.285,1.146,0.285
		c0.357,0,0.685-0.067,0.982-0.2c0.296-0.136,0.623-0.376,0.978-0.729l0.836,0.872c-0.479,0.467-0.933,0.791-1.358,0.971
		c-0.424,0.181-0.91,0.271-1.456,0.271c-1.005,0-1.832-0.32-2.474-0.958c-0.639-0.639-0.96-1.457-0.96-2.455
		c0-0.647,0.146-1.219,0.439-1.722c0.291-0.502,0.709-0.905,1.254-1.209c0.543-0.306,1.13-0.46,1.759-0.46
		c0.535,0,1.047,0.113,1.544,0.341C255.979,48.071,256.406,48.392,256.764,48.809L256.764,48.809z M260.429,47.667h1.238v4.298
		c0,0.683-0.054,1.163-0.163,1.439c-0.109,0.275-0.287,0.495-0.537,0.658c-0.249,0.163-0.547,0.245-0.898,0.245
		c-0.713,0-1.32-0.313-1.823-0.938l0.889-0.831c0.196,0.222,0.364,0.373,0.503,0.448c0.137,0.077,0.271,0.115,0.4,0.115
		c0.132,0,0.23-0.056,0.295-0.169c0.066-0.11,0.096-0.357,0.096-0.735V47.667L260.429,47.667z M266.096,47.667h1.25l2.492,6.477
		h-1.282l-0.507-1.334h-2.641l-0.528,1.334h-1.28L266.096,47.667L266.096,47.667z M266.732,49.385l-0.865,2.223h1.722
		L266.732,49.385L266.732,49.385z M276.266,47.667h1.251l2.491,6.477h-1.282l-0.505-1.334h-2.643l-0.528,1.334h-1.281
		L276.266,47.667L276.266,47.667z M276.899,49.385l-0.863,2.223h1.722L276.899,49.385L276.899,49.385z M281.942,47.667h1.18
		l2.78,4.263v-4.263h1.231v6.477h-1.185l-2.773-4.249v4.249h-1.233V47.667L281.942,47.667z M288.944,47.667h3.581v1.216h-1.18v5.261
		h-1.25v-5.261h-1.151V47.667L288.944,47.667z M294.352,47.667h3.537v1.207h-2.311v1.17h2.311v1.187h-2.311v1.702h2.311v1.211
		h-3.537V47.667L294.352,47.667z M300.017,47.667h1.179l2.779,4.263v-4.263h1.233v6.477h-1.185l-2.774-4.249v4.249h-1.232V47.667
		L300.017,47.667z"/>
</g>
</svg>
